<svg width="508" height="340" viewBox="0 0 508 340">
  <path fill="#FFF" fill-rule="evenodd" d="M592.013708,159.467534 C592.013708,186.04563 580.687985,208.395058 558.036198,226.516487 C536.894531,243.127797 512.732987,251.433328 485.550843,251.433328 C478.906319,251.433328 453.838718,247.809096 410.347288,240.560525 C392.225859,237.540287 379.994077,236.03019 373.651577,236.03019 C370.631339,236.03019 365.043982,237.087258 356.889339,239.201424 C375.614816,245.845948 384.977414,257.92672 384.977414,275.444102 C384.977414,293.263507 376.520873,309.874568 359.607539,325.277783 C337.861824,345.211355 309.92504,355.177992 275.796348,355.177992 C268.245753,355.177992 261.148299,354.724963 254.503775,353.818892 C243.02687,364.087701 230.644079,371.638184 217.355031,376.470565 C206.482173,380.396875 192.438276,382.36 175.222918,382.36 C166.464228,382.36 159.064755,381.604952 153.024278,380.094833 C130.372492,374.35638 113.006383,360.010464 100.92543,337.056653 C90.6566198,317.425105 85.5222918,294.773658 85.5222918,269.101633 C85.5222918,242.825561 92.3932307,218.361998 106.135315,195.710212 C119.877398,173.058425 138.37608,155.390296 161.631914,142.705296 L161.631914,140.440129 C161.631914,114.164056 170.390474,91.5126092 187.907855,72.4851084 C205.425237,53.4576077 227.170626,43.944 253.144675,43.944 C271.568128,43.944 285.007986,48.625299 293.464653,57.9880375 C304.941558,54.9677993 317.475359,53.4577028 331.066431,53.4577028 C344.657503,53.4577028 355.832217,56.1758764 364.590908,61.6123052 C375.161741,68.2568293 380.447079,78.0724563 380.447079,91.0594806 C380.447079,104.348529 370.027413,111.445982 349.18777,112.352054 L344.657435,112.352054 C341.939221,112.654077 339.372057,112.654077 336.955866,112.352054 C334.841699,112.352054 333.482613,112.201044 332.878565,111.89902 C333.180589,111.294972 333.331598,110.690934 333.331598,110.086886 L333.331598,109.633853 L334.237665,110.086886 C341.184213,110.086886 346.998085,107.821742 351.679454,103.291384 C356.360823,98.7610269 359.003492,93.0226603 359.607539,86.0761124 C360.211587,77.9214693 356.889375,71.1260352 349.640803,65.6896064 C342.996279,61.1592491 335.445797,58.8941044 326.98913,58.8941044 C318.834487,58.8941044 309.622898,61.612278 299.354088,67.0487068 C301.468255,71.5790642 302.525323,76.8644017 302.525323,82.9048782 C302.525323,103.744522 290.74657,119.298515 267.188712,129.567325 C292.256689,136.211849 305.847557,149.047669 307.961724,168.07517 C311.283986,171.095408 312.945092,174.56863 312.945092,178.49494 C312.945092,186.347559 308.867832,192.689964 300.713189,197.522345 C293.766641,201.448655 286.065149,203.41178 277.608482,203.41178 C263.715386,203.41178 251.332595,197.673414 240.459738,186.196509 C235.92938,188.914723 231.85212,192.085926 228.227834,195.710212 C209.502357,213.831641 200.139759,233.462895 200.139759,254.604562 C200.139759,273.632063 206.633174,290.243124 219.620198,304.438244 C232.003175,317.425268 247.708178,326.334837 266.735679,331.167218 C285.159132,310.629598 294.37072,287.978151 294.37072,263.212198 C294.37072,257.775769 292.936129,250.980335 290.066902,242.825692 C287.197676,234.671049 285.763084,230.895808 285.763084,231.499855 C285.763084,231.197832 285.914094,230.895812 286.216118,230.593788 C287.122189,230.291765 287.726228,230.442774 288.028252,231.046822 C291.04849,236.483251 293.464644,241.919598 295.276787,247.356027 C298.599049,227.422455 309.169724,211.415432 326.98913,199.334479 C343.298416,188.159598 362.023612,182.572241 383.16528,182.572241 C394.340161,182.572241 407.478,184.686376 422.579191,188.91471 C446.13705,195.559234 458.972869,199.032455 461.087036,199.334479 C468.939656,200.844598 474.376003,201.599647 477.396241,201.599647 C505.182433,201.599647 525.417725,197.069357 538.102726,188.008643 C548.069512,180.760071 554.562926,171.548482 557.583165,160.373601 C557.885188,158.863482 558.791246,158.259443 560.301365,158.561467 C561.811485,158.863491 562.415523,159.769549 562.113499,161.279668 C558.791237,173.662645 551.391765,183.780291 539.914859,191.63291 C529.64605,198.881482 517.716287,203.109752 504.125216,204.317847 C494.158429,205.223919 485.24886,205.676948 477.396241,205.676948 C466.523383,205.676948 450.81838,202.203726 430.28076,195.257178 C409.743141,188.31063 394.038137,184.837408 383.16528,184.837408 C362.325636,184.837408 342.845392,191.783852 324.723963,205.676948 C305.394438,220.778139 295.729821,238.446267 295.729821,258.681863 C295.729821,268.64865 298.599004,278.464277 304.337456,288.129039 C303.733409,285.410824 303.43139,282.541641 303.43139,279.521403 C303.43139,273.480927 305.545525,266.987512 309.773858,260.040964 C322.760882,238.899296 351.603725,228.328621 396.30325,228.328621 C404.15587,228.328621 415.934622,228.93266 431.639861,230.140755 C447.345099,231.34885 459.123852,231.952889 466.976471,231.952889 C495.668734,231.952889 520.585326,227.4226 541.726993,218.361885 C570.72128,205.978908 585.218206,186.951693 585.218206,161.279668 C585.218206,147.688596 580.687917,136.740397 571.627202,128.434742 C562.566487,120.129087 551.240764,115.976321 537.649692,115.976321 C526.172787,115.976321 515.904131,118.694495 506.843416,124.130924 C495.970559,130.1714 490.534212,138.62794 490.534212,149.500798 C490.534212,155.23925 492.346327,160.298074 495.970613,164.677419 C499.594899,169.056764 504.276198,171.246404 510.014651,171.246404 C514.545008,171.246404 519.377317,169.736308 524.511722,166.71607 L524.511722,167.622137 L524.964755,168.07517 C516.508088,174.719694 507.900538,178.041906 499.141847,178.041906 C489.779109,178.041906 482.077617,175.097218 476.037141,169.207754 C469.996664,163.318289 466.976471,155.692302 466.976471,146.329564 C466.976471,132.436468 473.620896,120.808725 486.909944,111.445987 C498.990897,102.687296 512.279745,98.3080161 526.776889,98.3080161 C544.294271,98.3080161 559.546245,104.121887 572.533269,115.749805 C585.520293,127.377722 592.013708,141.950152 592.013708,159.467534 Z M300.260155,82.9048782 C300.260155,77.4684494 299.203088,72.6361407 297.088921,68.4078072 C279.269516,79.5826886 265.527638,99.2139426 255.862876,127.302158 C258.279066,127.906206 260.84623,128.359235 263.564444,128.661258 C288.028374,118.694472 300.260155,103.442498 300.260155,82.9048782 Z M289.840386,59.3471379 C281.987766,53.0046376 269.755985,49.8334351 253.144675,49.8334351 C229.284793,49.8334351 209.35152,58.7430042 193.344257,76.5624096 C177.336994,94.3818151 169.182474,115.221146 168.88045,139.081028 C186.397831,130.926385 204.669999,126.396096 223.697499,125.490024 C227.925833,110.086809 236.080354,96.4959411 248.161307,84.717012 C260.242259,72.938083 274.135147,64.4815429 289.840386,59.3471379 Z M305.243523,165.810003 C302.223285,148.292621 288.028379,136.966898 262.658378,131.832493 C260.846235,131.530469 257.675032,132.436527 253.144675,134.550693 C251.332532,141.195218 250.426474,147.235603 250.426474,152.672032 C250.426474,155.088223 250.728493,159.316493 251.332541,165.356969 C262.507422,161.128636 272.17204,159.16551 280.326683,159.467534 L291.199486,159.467534 C295.427819,159.769558 300.109118,161.883693 305.243523,165.810003 Z M305.243523,179.85404 C305.243523,170.189278 298.599099,165.356969 285.310051,165.356969 C274.739217,165.356969 264.017532,168.075143 253.144675,173.511572 L252.691641,173.964605 C262.05438,187.555677 273.531113,194.351111 287.122185,194.351111 C291.652542,194.351111 295.805307,192.992024 299.580605,190.27381 C303.355903,187.555596 305.243523,184.082374 305.243523,179.85404 Z M229.133901,178.041906 C223.395448,167.773096 220.526265,157.80646 220.526265,148.141697 C220.526265,141.497173 221.281313,135.003759 222.791432,128.661258 C203.763932,129.869354 185.793784,134.701662 168.88045,143.158329 C169.484497,156.145354 173.486253,167.018048 180.885837,175.776739 C188.28542,184.53543 198.176552,189.065719 210.559529,189.367743 C216.297981,185.441433 222.489377,181.666192 229.133901,178.041906 Z M376.369778,273.178934 C376.369778,265.628339 373.727109,258.983914 368.441692,253.245462 C363.156275,247.507009 356.738365,244.637826 349.18777,244.637826 C341.939198,244.637826 335.747803,246.902971 330.613398,251.433328 C325.478993,255.963685 322.911829,261.853061 322.911829,269.101633 C322.911829,273.027943 326.083031,278.162271 332.425531,284.504771 C333.331603,285.410843 333.633622,286.61892 333.331598,288.129039 C332.727551,298.397849 327.593223,303.532177 317.928461,303.532177 C313.096079,303.532177 309.320838,300.965013 306.602624,295.830608 C302.676314,290.998227 299.656121,285.561879 297.541954,279.521403 C295.125764,297.642832 287.273262,315.46197 273.984214,332.979352 C280.024691,334.187447 286.065076,334.791486 292.105553,334.791486 C319.891744,334.791486 342.694201,326.032926 360.513606,308.515545 C371.08444,297.944711 376.369778,286.165959 376.369778,273.178934 Z M244.084005,352.006758 C222.640314,348.080448 203.915118,338.71785 187.907855,323.918683 C170.692498,307.609396 162.084948,289.03521 162.084948,268.195566 C162.084948,240.107351 176.279854,215.341769 204.670094,193.898078 C178.394021,190.273792 164.199115,174.568789 162.084948,146.782597 C140.037209,159.467598 122.746604,176.682697 110.212616,198.428412 C97.6786272,220.174127 91.4117269,243.731632 91.4117269,269.101633 C91.4117269,292.961515 96.3950452,313.951856 106.361831,332.073285 C117.536713,352.912929 133.845754,366.050768 155.289446,371.487197 C161.329922,372.997316 167.974347,373.752364 175.222918,373.752364 C190.324109,373.752364 202.7069,372.242268 212.371663,369.222029 C222.036425,366.201791 232.6071,360.463425 244.084005,352.006758 Z" transform="translate(-85 -43)"/>
</svg>
