<?xml version="1.0" encoding="UTF-8"?>
<svg width="502px" height="600px" viewBox="0 0 502 600" version="1.1" xmlns="http://www.w3.org/2000/svg" xmlns:xlink="http://www.w3.org/1999/xlink">
    <!-- Generator: Sketch 48.2 (47327) - http://www.bohemiancoding.com/sketch -->
    <title>Group 2</title>
    <desc>Created with Sketch.</desc>
    <defs></defs>
    <g id="Artboard" stroke="none" stroke-width="1" fill="none" fill-rule="evenodd" transform="translate(-14.000000, -9.000000)">
        <g id="Group-2" transform="translate(14.000000, 9.000000)" fill="#000000" fill-rule="nonzero">
            <g id="noun_26864">
                <path d="M481.556,556.338 C484.106,557.532 486.512,559.194 488.648,561.372 C497.612,570.336 498.422,584.052 490.448,592.02 C482.48,600 468.746,599.19 459.782,590.226 C457.652,588.084 455.984,585.66 454.778,583.116 C453.71,584.754 452.456,586.314 451.016,587.742 C439.856,598.92 421.742,598.92 410.582,587.742 C406.832,584.004 404.372,579.468 403.142,574.674 C390.65,578.694 366.704,583.194 333.884,574.98 C330.536,583.362 322.376,589.266 312.806,589.266 C305.978,589.266 299.858,586.254 295.7,581.484 C287.504,592.464 270.578,600 250.994,600 C231.422,600 214.49,592.464 206.294,581.478 C202.13,586.248 196.01,589.26 189.188,589.26 C179.624,589.26 171.464,583.35 168.116,574.974 C135.302,583.188 111.356,578.688 98.858,574.662 C97.634,579.462 95.174,583.998 91.424,587.736 C80.252,598.908 62.138,598.908 50.972,587.736 C49.532,586.302 48.278,584.742 47.21,583.11 C46.01,585.654 44.342,588.084 42.206,590.214 C33.242,599.178 19.514,599.988 11.54,592.008 C3.572,584.04 4.382,570.318 13.34,561.354 C15.488,559.218 17.906,557.544 20.45,556.35 C18.812,555.27 17.252,554.016 15.812,552.588 C4.652,541.422 4.652,523.302 15.812,512.136 C18.956,509.004 22.658,506.772 26.582,505.398 C21.794,489.33 12.986,446.31 30.47,384.18 C19.748,382.35 11.594,373.044 11.594,361.818 C11.594,354.984 14.618,348.864 19.382,344.706 C8.402,336.51 0.86,319.584 0.86,300 C0.86,280.434 8.39,263.496 19.382,255.306 C14.606,251.142 11.594,245.028 11.594,238.2 C11.594,226.974 19.76,217.674 30.47,215.844 C14.972,160.764 20.138,120.702 24.842,101.13 C21.56,99.744 18.488,97.716 15.812,95.046 C4.652,83.874 4.652,65.76 15.812,54.594 C17.258,53.148 18.812,51.9 20.462,50.826 C17.918,49.626 15.488,47.964 13.352,45.816 C4.394,36.858 3.584,23.13 11.552,15.156 C19.526,7.182 33.254,7.98 42.218,16.944 C44.348,19.086 46.022,21.51 47.222,24.054 C48.284,22.416 49.538,20.856 50.978,19.416 C62.15,8.25 80.258,8.25 91.43,19.416 C93.47,21.456 95.12,23.736 96.41,26.154 C108.044,22.002 133.01,16.236 168.122,25.02 C171.47,16.656 179.636,10.74 189.194,10.74 C196.016,10.74 202.142,13.752 206.3,18.516 C214.496,7.542 231.422,0 251,0 C270.59,0 287.516,7.542 295.724,18.516 C299.906,13.746 306.002,10.734 312.842,10.734 C322.406,10.734 330.554,16.65 333.914,25.014 C369.002,16.224 393.986,21.996 405.62,26.148 C406.922,23.73 408.554,21.45 410.6,19.41 C421.76,8.244 439.886,8.244 451.046,19.41 C452.48,20.85 453.734,22.404 454.808,24.048 C456.014,21.504 457.676,19.08 459.812,16.938 C468.776,7.98 482.51,7.176 490.472,15.15 C498.446,23.118 497.642,36.852 488.678,45.81 C486.518,47.958 484.106,49.62 481.562,50.82 C483.194,51.888 484.76,53.142 486.194,54.582 C497.366,65.754 497.366,83.862 486.194,95.034 C483.518,97.71 480.446,99.72 477.164,101.106 C481.88,120.672 487.028,160.74 471.536,215.832 C482.258,217.662 490.412,226.962 490.412,238.188 C490.412,245.016 487.388,251.13 482.618,255.294 C493.598,263.484 501.146,280.416 501.146,299.994 C501.146,319.578 493.598,336.516 482.618,344.706 C487.388,348.87 490.412,354.984 490.412,361.818 C490.412,373.056 482.246,382.35 471.536,384.18 C489.008,446.298 480.2,489.33 475.418,505.386 C479.342,506.76 483.044,508.992 486.182,512.136 C497.354,523.29 497.354,541.41 486.182,552.576 C484.742,554.016 483.182,555.27 481.556,556.338 Z M422.84,521.694 L422.84,79.638 L79.97,79.638 L79.97,521.694 L422.84,521.694 Z M258.578,139.998 C253.622,138.804 232.238,134.526 254.42,98.088 L273.26,98.088 C308.042,101.034 333.644,120.696 347.612,155.418 C359.612,185.22 360.152,218.118 360.386,232.164 C360.8,257.082 373.046,328.398 375.518,342.612 C384.512,351.894 394.862,365.988 403.736,379.02 L403.736,501.9 L99.11,501.9 L99.11,430.638 C102.8,427.05 106.718,424.518 110.264,422.946 C122.654,395.718 152.198,382.35 161.156,378.822 C164.81,373.476 170.468,361.746 157.16,317.898 C143.36,272.46 155.96,240.48 161.864,229.044 C158.522,222.348 158.498,216.594 159.206,212.67 C160.058,207.972 162.194,204.234 164.318,201.504 C158.39,188.376 164.21,176.244 171.296,169.488 C174.194,156.192 189.032,106.122 248.468,98.652 C245.612,106.176 235.862,130.932 228.614,136.656 C223.436,140.754 205.298,140.94 199.592,152.358 C193.886,163.782 190.076,197.562 194.36,208.98 L194.36,217.53 C194.36,217.53 191.432,229.434 196.256,252.264 C200.378,271.8 209.876,295.734 225.974,303.606 C237.77,305.412 262.202,306.84 281.702,292.962 C296.27,282.594 305.63,265.506 309.674,242.07 C310.802,219.96 311.138,190.842 306.158,177.588 C297.59,154.746 273.872,143.688 258.578,139.998 Z M314.246,366.234 C314.246,361.392 316.622,357.12 320.27,354.474 L315.668,350.292 C315.668,350.292 308.69,313.2 307.64,282.576 C302.48,290.718 296.144,297.504 288.596,302.856 C272.834,314.028 254.912,316.884 240.788,316.884 C238.856,316.884 236.996,316.83 235.22,316.734 C236.468,326.46 238.1,339.75 238.1,342.678 C238.1,342.678 170.054,393.582 172.916,417.372 C175.772,441.162 247.628,452.586 279.02,450.21 C279.02,450.21 294.746,430.662 308.624,424.254 C307.652,422.334 307.088,420.168 307.088,417.87 C307.088,413.382 309.182,409.386 312.41,406.758 C311.156,404.472 310.436,401.862 310.436,399.072 C310.436,394.476 312.374,390.348 315.488,387.444 C314.996,386.238 314.714,384.96 314.714,383.598 C314.714,380.598 316.052,377.952 318.14,376.11 C315.734,373.524 314.246,370.068 314.246,366.234 Z" id="Shape"></path>
            </g>
        </g>
    </g>
</svg>