<svg fill="#FFFFFF" xmlns="http://www.w3.org/2000/svg" xmlns:xlink="http://www.w3.org/1999/xlink" version="1.1" x="0px" y="0px" viewBox="0 0 100 100" enable-background="new 0 0 100 100" xml:space="preserve"><path d="M87.666,12.667H12.334c-5.238,0-9.5,4.262-9.5,9.5v55.666c0,5.238,4.262,9.5,9.5,9.5h75.332c5.238,0,9.5-4.262,9.5-9.5  V22.167C97.166,16.929,92.904,12.667,87.666,12.667z M92.166,69.329L68.59,46.752l23.576-17.053V69.329z M12.334,17.667h75.332  c2.481,0,4.5,2.019,4.5,4.5v1.362L50,54.028L7.834,23.529v-1.362C7.834,19.686,9.853,17.667,12.334,17.667z M31.41,46.752  L7.834,69.329v-39.63L31.41,46.752z M87.666,82.333H12.334c-2.481,0-4.5-2.019-4.5-4.5v-1.581l27.695-26.521L50,60.198  l14.471-10.467l27.695,26.521v1.581C92.166,80.314,90.147,82.333,87.666,82.333z"></path></svg>