<svg xmlns:xlink="http://www.w3.org/1999/xlink" width="188" height="211" viewBox="0 0 188 211">
  <defs>
    <path id="map-marker-2-b" d="M28,0 L132,0 L132,-3.55271368e-15 C147.463973,-6.39339943e-15 160,12.536027 160,28 L160,120 L160,120 C160,135.463973 147.463973,148 132,148 L28,148 C12.536027,148 1.8937905e-15,135.463973 0,120 L0,28 C-1.8937905e-15,12.536027 12.536027,-7.12027924e-16 28,-3.55271368e-15 L28,0 Z M80.5,185 L66,148 L95,148 L80.5,185 Z"/>
    <filter id="map-marker-2-a" width="129.4%" height="125.4%" x="-14.7%" filterUnits="objectBoundingBox">
      <feOffset dy="5" in="SourceAlpha" result="shadowOffsetOuter1"/>
      <feGaussianBlur in="shadowOffsetOuter1" result="shadowBlurOuter1" stdDeviation="7"/>
      <feColorMatrix in="shadowBlurOuter1" values="0 0 0 0 0   0 0 0 0 0   0 0 0 0 0  0 0 0 0.5 0"/>
    </filter>
  </defs>
  <g fill="none" fill-rule="evenodd" transform="translate(14 9)">
    <use fill="#000" filter="url(#map-marker-2-a)" xlink:href="#map-marker-2-b"/>
    <use fill="#222" xlink:href="#map-marker-2-b"/>
    <path fill="#FFF" fill-rule="nonzero" d="M49.9788597,24.0815972 C48.0360066,26.4587429 46.1087844,29.0089782 44.4618844,31.0866418 L61.6686745,56.2971043 L78.8754646,31.0866418 C77.2285424,29.0089351 75.3399671,26.458722 73.3970695,24.0815972 L49.9788597,24.0815972 Z M97.6254646,42.9028433 C92.5946893,42.9028433 87.7748844,43.8855621 83.3893535,45.6740697 C86.7551658,47.7888197 89.8428535,50.3803302 92.4942918,53.3334316 C94.1560004,53.0220948 95.8732004,52.8715605 97.6254646,52.8715605 C112.874874,52.8715605 125.210341,65.216597 125.210341,80.4298677 C125.210341,95.6433551 112.874874,107.949686 97.6254646,107.949686 C82.3760547,107.949686 70.0020078,95.6433551 70.0020078,80.4298677 C70.0020078,73.31584 72.7009226,66.805032 77.1393535,61.9165356 C74.5080091,59.7241051 71.4049609,58.0715588 68.1115757,57.1438679 C63.037314,63.5368175 60.0097239,71.6417742 60.0097239,80.4298677 C60.0097239,101.142366 76.8642177,117.918403 97.6254646,117.918403 C118.386733,117.918403 135.202625,101.142366 135.202625,80.4298677 C135.202625,59.7175638 118.386733,42.9028433 97.6254646,42.9028433 Z M50.0946004,44.7503276 C35.0074078,49.6254223 24.091514,63.7538723 24.091514,80.4298677 C24.091514,101.142345 40.9074066,117.918403 61.6686745,117.918403 C66.6823041,117.918403 71.4928399,116.924223 75.8662053,115.147176 C72.5103967,113.028963 69.4371547,110.452378 66.7998473,107.487814 C65.1389905,107.798715 63.4201313,107.949686 61.6686745,107.949686 C46.4192646,107.949686 34.0452177,95.6433551 34.0452177,80.4298677 C34.0452177,67.1447585 43.4906251,56.0470177 56.0359584,53.4488994 C54.0523486,50.5446295 52.0784733,47.6544004 50.0946004,44.7503276 Z M73.2813288,44.7503276 C71.2996399,47.6533769 69.3214844,50.5457404 67.3399708,53.4488994 C79.883972,56.0470177 89.2921313,67.1447585 89.2921313,80.4298677 C89.2921313,87.561173 86.5721535,94.0520664 82.1162053,98.9431997 C84.7572473,101.128897 87.9020288,102.687002 91.2211436,103.6004 C96.26653,97.217169 99.2844152,89.1904829 99.2844152,80.4298677 C99.2844152,63.7515839 88.3717313,49.6235489 73.2813288,44.7503276 Z"/>
  </g>
</svg>
