<svg xmlns="http://www.w3.org/2000/svg" xmlns:xlink="http://www.w3.org/1999/xlink" version="1.1" x="0px" y="0px" viewBox="0 0 20 20" style="enable-background:new 0 0 20 20;" xml:space="preserve"><style type="text/css">
	.st0{fill:none;stroke:#000000;stroke-miterlimit:10;}
</style><g><path d="M8,2c-4.7,0-8.5,4.1-7.9,9c0.4,3.6,3.3,6.5,6.9,6.9c1.1,0.4,6.9,0.4,4.6-3.8c-0.1-0.2,0.6-4.3,1.7-5.6   c1.1-1.4,1.1-3.5-0.2-4.7C11.7,2.6,10,2,8,2z M2,10c0-0.6,0.4-1,1-1c0.6,0,1,0.4,1,1c0,0.6-0.4,1-1,1C2.4,11,2,10.6,2,10z    M5.2,14.2c-0.4,0.4-1,0.4-1.4,0c-0.4-0.4-0.4-1,0-1.4c0.4-0.4,1-0.4,1.4,0C5.6,13.2,5.6,13.9,5.2,14.2z M5.2,7.2   c-0.4,0.4-1,0.4-1.4,0c-0.4-0.4-0.4-1,0-1.4c0.4-0.4,1-0.4,1.4,0C5.6,6.1,5.6,6.8,5.2,7.2z M8,16c-0.6,0-1-0.4-1-1c0-0.6,0.4-1,1-1   c0.6,0,1,0.4,1,1C9,15.6,8.6,16,8,16z M8,6C7.4,6,7,5.6,7,5c0-0.6,0.4-1,1-1c0.6,0,1,0.4,1,1C9,5.6,8.6,6,8,6z M12.2,7.2   c-0.4,0.4-1,0.4-1.4,0c-0.4-0.4-0.4-1,0-1.4c0.4-0.4,1-0.4,1.4,0C12.6,6.1,12.6,6.8,12.2,7.2z"></path><path d="M18.6,13c0.7,0,1.2-0.1,1.1-0.9L19,1c0-0.5-0.5-1-1-1c-0.6,0-1,0.5-1,1l-0.7,11.1c-0.1,0.8,0.4,0.9,1.1,0.9   c-0.8,0.3-1.4,1-1.4,1.9c0,1.1,2,5.1,2,5.1s2-4,2-5.1C20,14,19.4,13.3,18.6,13z"></path></g></svg>