<svg xmlns="http://www.w3.org/2000/svg" xmlns:xlink="http://www.w3.org/1999/xlink" version="1.1" x="0px" y="0px" viewBox="0 0 24 24" style="enable-background:new 0 0 24 24;" xml:space="preserve"><g><g><path d="M12,18.5c0-2.179,1.085-4.202,2.904-5.413c0.064-0.043,0.118-0.1,0.157-0.167c0.292-0.508,0.439-0.986,0.439-1.419    c0-0.354,0.105-0.5,0.121-0.515c0.156-0.039,0.284-0.15,0.343-0.299C16.019,10.55,16.5,9.324,16.5,8.501    c0-0.041-0.005-0.082-0.015-0.121C16.43,8.161,16.277,7.84,16,7.652V5c0-1.611-0.492-2.272-1.01-2.655C14.891,1.569,14.06,0,11,0    C7.902,0,6,2.912,6,5v2.651C5.723,7.839,5.57,8.159,5.515,8.379C5.505,8.419,5.5,8.459,5.5,8.5c0,0.823,0.481,2.049,0.536,2.186    c0.06,0.149,0.148,0.248,0.304,0.287C6.395,11,6.5,11.146,6.5,11.5c0,0.95,0.713,2.006,1.478,2.708    c-0.105,0.655-0.593,2.382-1.636,2.818l-4.438,1.479c-1.219,0.406-1.628,1.428-1.889,2.471C0.005,21.016,0,21.057,0,21.098V23.5    C0,23.776,0.224,24,0.5,24h13.105c0.203,0,0.386-0.123,0.463-0.311c0.077-0.188,0.032-0.404-0.113-0.546    C12.694,21.908,12,20.26,12,18.5z M18.5,13c-3.033,0-5.5,2.467-5.5,5.5s2.467,5.5,5.5,5.5c3.033,0,5.5-2.467,5.5-5.5    S21.533,13,18.5,13z M21.854,16.854l-4,4C17.756,20.951,17.628,21,17.5,21s-0.256-0.049-0.354-0.146l-2-2    c-0.195-0.195-0.195-0.512,0-0.707c0.195-0.195,0.512-0.195,0.707,0l1.646,1.646l3.646-3.646c0.195-0.195,0.512-0.195,0.707,0    C22.047,16.342,22.049,16.658,21.854,16.854z"></path></g></g></svg>