<svg xmlns="http://www.w3.org/2000/svg" xmlns:xlink="http://www.w3.org/1999/xlink" version="1.1" x="0px" y="0px" viewBox="0 0 100 100" enable-background="new 0 0 100 100" xml:space="preserve"><path d="M82.845,55.999c-0.037-4.857-0.856-13.365-7.665-13.677c-1.299-0.06-2.463,0.282-3.481,0.89  c-1.048-3.887-3.602-6.931-8.629-6.292c-2.063,0.262-3.465,1.189-4.504,2.463c-1.151-3.174-3.075-5.855-6.371-5.826  c-1.645,0.014-2.987,0.404-4.093,1.048c0.037-2.515,0.083-5.031,0.096-7.558c0.027-5.314,2.573-19.968-4.916-21.72  c-9.175-2.146-11.344,9.489-11.77,16.003c-0.321,4.914-0.298,9.879-0.16,14.847c-0.325-0.06-0.681-0.057-1.066,0.032  c-12.585,2.898-16.237,17.184-10.616,27.68c2.519,4.703,5.794,9.037,9.065,13.235c1.36,1.746,3.391,3.516,4.225,5.59  c1.199,2.982,0.453,6.666,0.38,9.787c-0.076,3.226,4.924,3.219,5,0c0.115-4.881,0.669-9.564-1.913-13.958  c-1.786-3.04-4.813-5.748-6.899-8.617c-2.698-3.71-5.608-7.718-7.173-12.066c-2.575-7.154,2.11-15.11,9.16-16.8  c0.144,3.758,0.314,7.508,0.412,11.229c0.085,3.218,5.085,3.238,5,0.012c-0.203-7.666-0.365-15.333-0.543-23  c-0.071-3.081,0.012-6.164,0.213-9.239c0.115-1.758,0.362-3.483,0.745-5.201c0.13-0.63,0.352-1.226,0.668-1.786  c1.927-3.642,5.201-1.358,5.247,1.899c0.143,10.067-0.441,20.16-0.13,30.224c0.101,3.276,4.692,3.159,5,0  c0.231-2.367-0.057-4.308,2.23-6.018c3.632-2.716,4.716,6.937,4.847,8.285c0.274,2.82,3.929,3.39,4.911,0.665  c0.523-1.452,0.817-2.983,1.437-4.4c1.058-2.414,3.582-2.51,5.2-0.298c1.289,1.763,0.631,5.165,0.4,7.203  c-0.321,2.826,4.285,3.373,4.911,0.665c0.289-1.254,0.902-2.444,1.711-3.443c1.154-0.34,2.047-0.041,2.679,0.897  c1.658,1.513,1.365,3.817,1.381,5.749c0.045,5.427,0.108,10.855,0.119,16.282c0.003,1.632,0.164,3.523-0.701,4.951  c-1.451,2.395-3.646,3.442-5.712,5.225c-3.278,2.829-4.534,7.316-4.233,11.48c0.231,3.196,5.232,3.219,5,0  c-0.585-8.093,7.713-9.392,10.206-16.138c0.822-2.224,0.447-5.223,0.428-7.554C82.904,64.497,82.877,60.248,82.845,55.999z"></path></svg>